<svg version="1.0" xmlns="http://www.w3.org/2000/svg" width="500.000000pt" height="500.000000pt" viewBox="0 0 500.000000 500.000000" preserveAspectRatio="xMidYMid meet">

<g transform="translate(0.000000,500.000000) scale(0.100000,-0.100000)" fill="#ffffff" stroke="none">
<path d="M1840 3795 c-5 -14 -14 -51 -19 -83 -5 -31 -19 -111 -31 -177 -83 -466 -110 -628 -110 -650 0 -21 5 -25 29 -25 28 0 30 3 40 58 6 31 15 68 19 82 l7 25 270 3 c148 1 272 -1 277 -6 4 -4 -1 -55 -11 -112 -11 -58 -36 -199 -56 -315 -40 -226 -60 -282 -116 -329 -60 -51 -109 -69 -184 -70 -85 -1 -146 25 -200 86 -75 82 -89 154 -60 313 8 44 14 95 15 113 0 29 -3 32 -30 32 -23 0 -31 -5 -34 -22 -43 -218 -46 -290 -14 -374 28 -74 112 -166 174 -191 l46 -18 -5 -50 c-10 -97 -60 -360 -71 -371 -6 -6 -65 -28 -131 -48 -268 -83 -310 -99 -313 -123 -4 -27 18 -38 111 -53 34 -5 114 -19 177 -31 126 -22 496 -87 547 -96 25 -4 33 -1 43 18 11 20 9 26 -22 53 -19 17 -67 57 -108 88 -216 164 -220 168 -220 195 0 25 9 77 46 283 23 125 17 117 82 124 112 13 221 85 268 178 22 43 36 103 79 348 66 371 84 471 90 510 9 62 25 111 34 105 5 -2 11 -33 15 -67 6 -57 83 -511 120 -713 50 -270 58 -302 88 -358 51 -96 134 -151 257 -169 l68 -11 27 -166 c15 -91 32 -184 38 -205 11 -46 13 -44 -122 -145 -125 -95 -213 -166 -233 -189 -18 -20 -18 -21 6 -36 23 -15 33 -15 153 8 71 13 170 31 219 40 422 73 478 84 494 101 7 7 11 20 8 28 -5 13 -245 99 -382 136 -22 6 -46 15 -53 19 -13 8 -82 348 -82 403 0 22 7 30 41 43 57 23 130 96 165 163 26 53 29 67 29 158 -1 61 -9 147 -23 220 -27 140 -43 227 -83 460 -35 202 -36 205 -57 205 -42 -1 -45 -12 -28 -117 26 -162 60 -143 -258 -143 -253 0 -275 1 -280 18 -7 21 -76 422 -83 479 -4 31 -2 44 8 48 18 6 420 75 479 82 l46 5 23 -131 c14 -73 27 -134 31 -136 4 -2 16 -1 28 2 28 7 28 30 0 201 -15 96 -26 136 -37 140 -15 6 -83 -5 -393 -60 -98 -17 -181 -29 -184 -25 -4 4 -2 34 3 67 8 48 7 63 -4 72 -8 6 -60 19 -116 29 -56 10 -156 27 -222 39 -66 12 -160 28 -209 36 -49 8 -93 17 -97 20 -5 3 -13 -6 -19 -21z m334 -109 c115 -20 219 -36 232 -36 39 0 41 31 -21 -325 -20 -115 -39 -213 -41 -217 -3 -4 -129 -8 -280 -8 l-274 0 0 24 c0 13 6 57 14 97 8 41 22 115 30 164 36 205 57 321 62 334 3 9 14 12 37 8 17 -3 126 -22 241 -41z m991 -848 c2 -13 16 -90 31 -173 59 -346 62 -372 53 -415 -31 -137 -134 -220 -274 -220 -82 0 -132 20 -186 73 -54 52 -75 108 -103 273 -15 82 -37 212 -51 289 -14 77 -25 152 -25 168 l0 27 275 0 275 0 5 -22z m-1247 -1279 c91 -72 118 -99 95 -99 -5 0 -62 11 -128 24 -66 13 -160 29 -210 36 -119 15 -135 19 -135 29 0 4 53 25 118 45 64 21 122 39 127 41 23 8 35 1 133 -76z m1226 -86 c4 -4 57 -23 118 -43 103 -33 148 -60 99 -60 -11 0 -109 -16 -218 -36 -109 -19 -204 -36 -212 -37 -31 -4 -17 20 32 56 29 21 77 58 107 82 59 47 63 49 74 38z" fill="#ffffff"/>
<path d="M2762 2698 c3 -30 6 -33 37 -31 41 2 55 14 46 42 -5 17 -14 21 -46 21 -39 0 -40 -1 -37 -32z" fill="#ffffff"/>
<path d="M2982 2591 c-22 -13 -11 -55 15 -59 30 -4 63 15 63 37 0 28 -48 41 -78 22z" fill="#ffffff"/>
<path d="M2853 2429 c-33 -12 -32 -56 1 -65 34 -8 68 12 64 38 -4 25 -35 38 -65 27z" fill="#ffffff"/>
<path d="M2974 2225 c-12 -31 4 -46 43 -43 33 3 38 7 41 31 3 26 1 27 -38 27 -27 0 -43 -5 -46 -15z" fill="#ffffff"/>
<path d="M3499 3320 c-7 -5 -25 -39 -40 -77 -24 -62 -31 -71 -83 -101 -31 -18 -56 -39 -56 -47 0 -16 47 -55 65 -55 22 0 60 -54 83 -118 15 -41 29 -63 43 -67 11 -4 22 -5 23 -3 9 10 56 122 56 132 0 17 43 56 62 56 8 0 28 12 44 26 l28 27 -24 19 c-14 11 -41 29 -60 41 -27 18 -42 39 -64 94 -29 70 -49 90 -77 73z m50 -186 l31 -46 -24 -28 c-13 -16 -26 -35 -29 -42 -6 -16 -66 50 -67 73 0 9 9 24 20 34 11 10 20 26 20 37 0 30 17 21 49 -28z" fill="#ffffff"/>
<path d="M2071 2896 c-14 -17 -5 -43 21 -57 22 -12 68 11 68 34 0 34 -66 51 -89 23z" fill="#ffffff"/>
<path d="M1860 2765 c-23 -28 -8 -50 35 -50 35 0 40 3 43 24 6 38 -52 58 -78 26z" fill="#ffffff"/>
<path d="M2000 2589 c-9 -16 -8 -24 4 -38 33 -36 106 8 75 45 -18 22 -66 18 -79 -7z" fill="#ffffff"/>
<path d="M1854 2406 c-15 -39 21 -66 62 -47 18 8 24 18 22 34 -2 18 -10 23 -41 25 -26 2 -39 -1 -43 -12z" fill="#ffffff"/>
<path d="M1469 2323 c-10 -2 -31 -36 -48 -76 -29 -65 -38 -76 -86 -105 -30 -18 -55 -39 -55 -47 0 -16 42 -51 73 -61 30 -9 42 -27 73 -106 14 -38 30 -70 35 -73 16 -10 46 14 59 47 39 102 50 117 99 142 74 38 76 64 5 95 -46 21 -76 59 -96 123 -13 43 -36 66 -59 61z m31 -168 c0 -14 9 -30 20 -37 26 -16 25 -24 -5 -60 -14 -16 -25 -37 -25 -46 0 -22 -69 56 -70 79 0 9 9 24 20 34 11 10 22 26 25 36 9 28 35 24 35 -6z" fill="#ffffff"/>
</g>
</svg>