<svg version="1.0" xmlns="http://www.w3.org/2000/svg" width="500.000000pt" height="500.000000pt" viewBox="0 0 500.000000 500.000000" preserveAspectRatio="xMidYMid meet">

<g transform="translate(0.000000,500.000000) scale(0.100000,-0.100000)" fill="#ffffff" stroke="none">
<path d="M3445 4284 c4 -16 10 -40 15 -54 4 -14 13 -43 19 -65 6 -22 20 -73 32 -114 l21 -74 119 119 c65 65 119 121 119 124 0 3 -69 23 -152 44 -84 22 -159 41 -166 44 -10 3 -11 -3 -7 -24z" fill="#ffffff"/>
<path d="M3266 4171 l-119 -120 54 -15 c149 -41 279 -74 279 -69 0 14 -83 309 -89 315 -4 4 -60 -46 -125 -111z" fill="#ffffff"/>
<path d="M3860 4196 c0 -4 10 -42 40 -151 5 -16 16 -57 24 -90 9 -33 19 -66 22 -74 3 -10 43 23 124 104 66 66 120 123 120 126 0 3 -33 14 -72 23 -40 10 -102 26 -138 36 -88 24 -120 31 -120 26z" fill="#ffffff"/>
<path d="M3686 4061 c-109 -109 -116 -119 -94 -125 28 -9 152 -42 235 -63 35 -9 65 -14 68 -12 5 6 -78 319 -85 319 -3 0 -59 -53 -124 -119z" fill="#ffffff"/>
<path d="M4103 3951 c-69 -71 -107 -118 -100 -122 7 -4 41 -14 77 -23 36 -9 104 -27 153 -40 48 -13 87 -21 87 -17 -2 28 -88 315 -96 317 -5 1 -59 -50 -121 -115z" fill="#ffffff"/>
<path d="M3150 3994 c0 -10 353 -714 356 -711 7 7 -9 605 -16 617 -8 12 -340 105 -340 94z" fill="#ffffff"/>
<path d="M3553 3838 c4 -29 14 -134 22 -233 9 -99 19 -188 23 -198 6 -14 21 1 73 75 133 189 212 303 216 314 2 6 -60 27 -161 52 -91 23 -168 42 -172 42 -4 0 -4 -24 -1 -52z" fill="#ffffff"/>
<path d="M3927 3758 c-23 -46 -66 -118 -88 -150 -11 -14 -19 -28 -19 -31 0 -3 -55 -96 -183 -306 -19 -32 -19 -33 -1 -23 10 6 75 49 144 97 69 47 212 145 318 217 130 88 189 134 180 139 -11 6 -317 89 -330 89 -2 0 -12 -15 -21 -32z" fill="#ffffff"/>
<path d="M1721 3540 c-313 -44 -595 -185 -821 -410 -238 -236 -370 -516 -411 -870 -55 -484 182 -1011 587 -1299 97 -68 291 -168 392 -200 159 -51 259 -66 442 -65 184 0 289 16 440 64 83 27 249 106 326 155 110 70 244 177 244 196 0 4 -15 12 -32 19 -52 20 -98 40 -169 76 l-66 33 -69 -51 c-76 -55 -235 -136 -331 -167 -226 -75 -535 -65 -753 25 -288 118 -495 311 -631 589 -118 242 -143 561 -62 820 89 285 302 544 563 683 372 199 847 173 1189 -65 152 -106 272 -238 361 -399 100 -181 140 -337 140 -549 0 -202 -32 -340 -121 -517 -22 -43 -39 -79 -39 -82 0 -7 143 -63 196 -76 28 -7 59 -10 67 -7 37 14 127 269 158 445 102 599 -204 1217 -741 1496 -116 60 -269 115 -395 141 -93 20 -367 28 -464 15z" fill="#ffffff"/>
<path d="M3145 3504 c-44 -7 -119 -24 -166 -38 -83 -24 -215 -81 -224 -96 -3 -5 18 -25 46 -45 28 -20 71 -55 95 -77 l45 -41 62 21 c87 31 206 52 293 52 l74 0 -60 120 c-33 66 -66 120 -73 119 -6 -1 -48 -7 -92 -15z" fill="#ffffff"/>
<path d="M3857 3256 l-108 -73 54 -31 c358 -202 551 -633 462 -1037 -76 -350 -357 -643 -699 -730 -517 -131 -1028 164 -1178 681 -20 70 -23 101 -23 259 1 177 1 182 33 274 43 123 84 206 143 283 27 35 48 69 49 75 0 16 -159 123 -182 123 -34 0 -170 -229 -216 -366 -74 -217 -86 -431 -38 -661 61 -286 251 -563 499 -726 204 -135 378 -192 618 -204 251 -12 493 56 719 202 114 74 283 249 350 365 102 173 150 311 171 491 47 411 -123 819 -454 1084 -45 36 -84 65 -87 64 -3 0 -54 -33 -113 -73z" fill="#ffffff"/>
</g>
</svg>