<svg xmlns="http://www.w3.org/2000/svg" version="1.0" width="840.000000pt" height="859.000000pt" viewBox="0 0 840.000000 859.000000" preserveAspectRatio="xMidYMid meet">

<g transform="translate(0.000000,859.000000) scale(0.100000,-0.100000)" fill="#a37e2c" stroke="none">
<path d="M3975 8454 c-814 -55 -1545 -311 -2185 -767 -326 -232 -685 -585 -929 -910 -772 -1033 -1016 -2395 -655 -3649 281 -973 929 -1830 1794 -2370 1060 -661 2345 -812 3535 -416 592 196 1143 536 1599 986 392 387 694 831 911 1338 386 902 433 1947 131 2899 -267 844 -821 1601 -1553 2123 -231 165 -612 376 -834 461 -430 166 -787 254 -1179 291 -121 12 -533 20 -635 14z m515 -1490 c156 -11 395 -58 565 -111 522 -163 1045 -553 1363 -1016 222 -324 362 -699 429 -1147 25 -174 25 -557 0 -718 -78 -489 -268 -900 -601 -1302 -429 -517 -1025 -834 -1711 -910 -130 -14 -466 -14 -586 1 -287 34 -595 127 -851 255 -48 24 -98 44 -112 44 -13 0 -57 -11 -97 -24 -41 -13 -162 -51 -269 -85 -107 -35 -213 -69 -235 -76 -22 -8 -148 -48 -280 -90 -132 -42 -309 -99 -394 -126 -84 -28 -156 -48 -159 -45 -5 6 13 61 303 923 l158 472 -32 58 c-223 400 -341 849 -341 1302 0 83 4 183 10 223 5 40 14 111 20 158 34 256 123 537 252 792 282 560 807 1039 1374 1253 402 152 748 201 1194 169z" fill="#a37e2c"/>
<path d="M4005 6519 c-374 -39 -799 -218 -1106 -465 -359 -288 -623 -694 -743 -1144 -91 -339 -93 -739 -6 -1082 54 -211 170 -475 284 -647 31 -47 56 -93 56 -103 0 -10 -48 -159 -106 -330 -137 -405 -153 -458 -145 -458 7 0 155 46 416 130 88 28 187 60 220 70 33 10 80 25 104 34 66 24 83 21 184 -37 254 -147 517 -239 793 -279 115 -16 462 -16 584 1 856 117 1560 724 1800 1553 56 195 80 374 80 596 0 360 -68 655 -223 964 -222 442 -551 770 -992 988 -228 112 -481 185 -729 209 -125 13 -353 12 -471 0z m-420 -899 c12 -5 32 -24 43 -42 38 -61 232 -593 232 -635 0 -54 -42 -121 -144 -231 -96 -105 -102 -122 -65 -195 38 -74 149 -236 223 -325 159 -190 337 -329 575 -447 66 -33 124 -55 143 -55 35 0 35 0 240 230 105 118 114 120 244 60 128 -59 483 -250 513 -276 24 -20 26 -28 23 -91 -5 -139 -61 -284 -137 -356 -58 -56 -187 -132 -276 -163 -182 -63 -323 -56 -551 30 -535 202 -688 294 -983 590 -218 219 -383 436 -545 719 -121 211 -160 333 -167 519 -6 142 10 238 55 343 63 146 194 296 290 332 40 14 243 10 287 -7z" fill="#a37e2c"/>
</g>
</svg>