<svg xmlns="http://www.w3.org/2000/svg" version="1.1" width="512px" height="512px" style="shape-rendering:geometricPrecision; text-rendering:geometricPrecision; image-rendering:optimizeQuality; fill-rule:evenodd; clip-rule:evenodd" xmlns:xlink="http://www.w3.org/1999/xlink" transform="rotate(0) scale(1, 1)">
<g><path style="opacity:0.897" fill="rgb(179, 163, 163)" d="M 252.5,35.5 C 258.695,34.3447 262.861,36.6781 265,42.5C 265.667,50.8333 265.667,59.1667 265,67.5C 261.787,74.4816 256.62,76.315 249.5,73C 247.396,70.9576 246.229,68.4576 246,65.5C 245.333,58.5 245.333,51.5 246,44.5C 246.258,39.9402 248.424,36.9402 252.5,35.5 Z"/></g>
<g><path style="opacity:0.935" fill="rgb(179, 163, 163)" d="M 210.5,56.5 C 213.518,56.3354 216.518,56.502 219.5,57C 225.667,63.1667 231.833,69.3333 238,75.5C 240.167,86.6667 235.667,91.1667 224.5,89C 218.333,82.8333 212.167,76.6667 206,70.5C 203.988,64.7032 205.488,60.0365 210.5,56.5 Z"/></g>
<g><path style="opacity:0.913" fill="rgb(179, 163, 163)" d="M 292.5,56.5 C 303.157,54.6581 307.657,58.9915 306,69.5C 300.532,75.9689 294.699,82.1356 288.5,88C 281.236,91.4475 276.069,89.6141 273,82.5C 272.516,80.0871 272.85,77.7538 274,75.5C 279.698,68.6359 285.865,62.3026 292.5,56.5 Z"/></g>
<g><path style="opacity:0.938" fill="rgb(179, 163, 163)" d="M 184.5,84.5 C 186.857,84.3367 189.19,84.5034 191.5,85C 213.076,95.0383 234.576,105.205 256,115.5C 277.424,105.205 298.924,95.0383 320.5,85C 325.117,83.703 328.95,84.8697 332,88.5C 361,141.167 390,193.833 419,246.5C 434.425,278.673 431.092,308.673 409,336.5C 403.076,342.428 396.576,347.594 389.5,352C 402.963,380.425 416.796,408.592 431,436.5C 440.113,432.36 449.28,428.36 458.5,424.5C 468.437,427.215 470.77,433.048 465.5,442C 442.622,453.273 419.622,464.273 396.5,475C 387,476.167 382.833,472 384,462.5C 384.785,460.714 385.951,459.214 387.5,458C 395.864,453.818 404.198,449.651 412.5,445.5C 399.165,416.832 385.332,388.499 371,360.5C 349.424,369.189 328.257,368.355 307.5,358C 303.968,353.381 303.635,348.548 306.5,343.5C 308.475,341.679 310.809,340.679 313.5,340.5C 320.61,343.369 327.943,345.536 335.5,347C 359.109,346.685 379.276,338.185 396,321.5C 412.218,299.415 413.552,276.415 400,252.5C 396.212,245.088 392.045,237.921 387.5,231C 349.833,230.333 312.167,230.333 274.5,231C 271.831,241.002 265.831,244.002 256.5,240C 253.682,236.662 252.849,232.829 254,228.5C 264.265,202.539 274.431,176.539 284.5,150.5C 253.743,135.705 222.909,121.038 192,106.5C 172.96,141.414 153.794,176.247 134.5,211C 169.167,211.333 203.833,211.667 238.5,212C 245.638,218.958 244.971,224.958 236.5,230C 198.829,230.167 161.162,230.667 123.5,231.5C 117.432,242.395 111.598,253.395 106,264.5C 97.3616,303.384 111.862,329.55 149.5,343C 164.853,349.512 179.853,348.845 194.5,341C 202.437,338.966 207.104,341.966 208.5,350C 207.978,354.058 205.978,357.058 202.5,359C 182.073,368.452 161.406,368.952 140.5,360.5C 139.833,360.833 139.167,361.167 138.5,361.5C 124.773,389.699 111.439,418.033 98.5,446.5C 108.273,449.97 117.44,454.637 126,460.5C 129.224,470.942 125.39,475.776 114.5,475C 92.0452,464.606 69.7118,453.939 47.5,443C 41.7279,438.359 41.0612,433.025 45.5,427C 47.7249,425.869 50.0583,425.036 52.5,424.5C 61.6128,428.223 70.6128,432.223 79.5,436.5C 80.086,436.291 80.586,435.957 81,435.5C 94.6441,407.712 108.144,379.879 121.5,352C 88.5034,329.358 77.0034,298.525 87,259.5C 116.81,203.212 147.144,147.212 178,91.5C 179.694,88.6424 181.861,86.309 184.5,84.5 Z M 317.5,107.5 C 319.592,107.561 321.092,108.561 322,110.5C 339.786,143.907 357.952,177.074 376.5,210C 345.168,210.5 313.835,210.667 282.5,210.5C 290.916,188.832 298.916,166.999 306.5,145C 306.5,141.667 305.167,139 302.5,137C 294.955,133.061 287.288,129.394 279.5,126C 292.35,120.074 305.016,113.908 317.5,107.5 Z M 229.5,269.5 C 237.654,268.91 243.987,272.077 248.5,279C 252.781,282.047 257.115,282.047 261.5,279C 272.502,266.136 283.002,266.636 293,280.5C 295.074,289.8 293.407,298.467 288,306.5C 278.706,319.461 267.706,330.794 255,340.5C 241.961,330.461 230.627,318.794 221,305.5C 215.799,297.381 214.466,288.714 217,279.5C 220.44,275.223 224.607,271.89 229.5,269.5 Z"/></g>
<g><path style="opacity:0.939" fill="rgb(179, 163, 163)" d="M 225.5,250.5 C 236.241,248.761 245.908,251.095 254.5,257.5C 274.132,245.989 291.632,248.656 307,265.5C 314.968,279.384 315.635,293.717 309,308.5C 305.75,315.34 301.75,321.673 297,327.5C 289.5,335 282,342.5 274.5,350C 269.442,354.057 264.108,357.724 258.5,361C 255.833,361.667 253.167,361.667 250.5,361C 230.621,348.121 214.454,331.621 202,311.5C 188.787,282.644 196.621,262.31 225.5,250.5 Z M 229.5,269.5 C 224.607,271.89 220.44,275.223 217,279.5C 214.466,288.714 215.799,297.381 221,305.5C 230.627,318.794 241.961,330.461 255,340.5C 267.706,330.794 278.706,319.461 288,306.5C 293.407,298.467 295.074,289.8 293,280.5C 283.002,266.636 272.502,266.136 261.5,279C 257.115,282.047 252.781,282.047 248.5,279C 243.987,272.077 237.654,268.91 229.5,269.5 Z"/></g>
</svg>