<svg xmlns="http://www.w3.org/2000/svg" version="1.0" width="330.000000pt" height="330.000000pt" viewBox="-3 -3 336 336" preserveAspectRatio="xMidYMid meet"><g id="deeditor_bgCarrier" stroke-width="0">
  <rect id="dee_c_e" x="-3" y="-3" width="336" height="336" rx="38.4" fill="#006039" strokewidth="0"/>
</g>

<g transform="translate(0.000000,330.000000) scale(0.100000,-0.100000)" fill="#a37e2c" stroke="none">
<path d="M2328 3085 c-15 -8 -30 -24 -33 -36 -5 -14 -12 -18 -23 -13 -10 3 -39 9 -67 11 -59 5 -110 -21 -117 -59 -15 -84 45 -167 166 -227 l68 -33 53 52 53 53 31 -63 c17 -34 40 -75 51 -91 l21 -29 37 19 c20 10 72 33 115 51 89 37 117 69 117 133 0 31 -7 46 -35 74 -36 36 -49 38 -110 18 -16 -5 -23 1 -34 26 -18 40 -68 63 -107 49 -28 -11 -30 -10 -55 33 -11 19 -67 47 -91 47 -7 -1 -25 -7 -40 -15z" fill="#a37e2c"/>
<path d="M1325 2780 c-120 -10 -231 -32 -303 -61 -82 -34 -51 -44 59 -20 256 55 758 55 1022 0 55 -11 101 -18 104 -15 19 19 -73 53 -219 81 -98 19 -507 28 -663 15z" fill="#a37e2c"/>
<path d="M1177 2669 c-98 -10 -131 -22 -158 -59 -35 -48 -77 -270 -51 -270 7 0 14 10 16 23 3 12 10 51 17 87 21 113 45 167 82 180 18 7 107 15 200 17 132 5 167 8 167 19 0 16 -123 17 -273 3z" fill="#a37e2c"/>
<path d="M1740 2665 c0 -13 22 -15 134 -15 166 0 234 -11 263 -44 18 -22 40 -94 68 -233 10 -49 38 -44 30 5 -27 165 -59 247 -107 270 -31 15 -190 31 -305 32 -67 0 -83 -3 -83 -15z" fill="#a37e2c"/>
<path d="M2350 2673 c0 -5 7 -31 16 -58 13 -36 16 -70 12 -139 -5 -85 -4 -88 8 -51 16 52 17 193 1 224 -12 25 -37 40 -37 24z" fill="#a37e2c"/>
<path d="M1529 2651 c-23 -18 -23 -20 -6 -39 23 -26 65 -34 111 -21 47 13 57 36 27 61 -31 24 -101 24 -132 -1z" fill="#a37e2c"/>
<path d="M917 2552 c-21 -77 -49 -210 -60 -287 -1 -5 4 -10 12 -10 9 0 22 42 42 140 16 77 35 160 44 184 18 55 18 58 1 64 -10 4 -20 -20 -39 -91z" fill="#a37e2c"/>
<path d="M2226 2642 c-3 -6 5 -50 19 -99 14 -48 33 -133 43 -187 10 -55 23 -101 30 -104 18 -6 15 28 -13 163 -36 174 -63 252 -79 227z" fill="#a37e2c"/>
<path d="M2497 2516 c-21 -44 -49 -95 -63 -113 -14 -19 -24 -37 -21 -39 9 -10 77 83 102 141 40 90 24 100 -18 11z" fill="#a37e2c"/>
<path d="M1200 2362 c-19 -9 -39 -27 -45 -39 -7 -16 -18 -23 -36 -23 -56 0 -93 -14 -130 -50 -70 -66 -53 -72 85 -31 256 76 792 74 1052 -4 127 -39 144 -31 74 36 -37 36 -100 57 -138 47 -6 -2 -18 8 -25 22 -23 45 -70 60 -194 60 -68 0 -114 -4 -118 -11 -4 -6 -25 -24 -47 -40 -65 -47 -139 -37 -197 25 -24 25 -29 26 -135 26 -86 0 -119 -4 -146 -18z" fill="#a37e2c"/>
<path d="M673 2340 c-27 -11 -39 -51 -23 -79 14 -27 74 -28 113 -2 16 10 37 16 48 14 35 -9 20 13 -30 45 -50 33 -70 37 -108 22z" fill="#a37e2c"/>
<path d="M2407 2314 c-51 -40 -57 -49 -28 -41 11 2 32 -4 48 -14 15 -10 45 -19 66 -19 31 0 39 4 48 26 13 35 4 58 -27 72 -40 19 -57 15 -107 -24z" fill="#a37e2c"/>
<path d="M1410 2211 c-155 -15 -389 -66 -373 -82 4 -4 44 1 88 12 280 67 656 67 934 -1 58 -14 88 -17 95 -10 5 5 8 10 5 10 -3 0 -41 9 -84 20 -182 46 -471 69 -665 51z" fill="#a37e2c"/>
<path d="M734 2176 c-96 -30 -175 -109 -214 -214 -22 -58 -48 -277 -37 -306 15 -38 24 -8 35 108 13 139 34 206 87 278 46 63 99 96 173 110 39 7 62 16 62 25 0 17 -51 16 -106 -1z" fill="#a37e2c"/>
<path d="M2350 2176 c0 -9 17 -16 47 -21 104 -15 182 -77 229 -181 25 -58 40 -130 50 -252 4 -54 11 -81 18 -79 16 6 10 188 -10 270 -31 127 -121 230 -232 263 -59 18 -102 18 -102 0z" fill="#a37e2c"/>
<path d="M1373 2080 c-71 -43 -85 -153 -33 -257 46 -92 200 -233 255 -233 61 0 229 162 264 254 55 146 0 256 -127 256 -56 0 -83 -10 -118 -42 -19 -17 -22 -17 -34 -3 -39 48 -149 61 -207 25z" fill="#a37e2c"/>
<path d="M670 2033 c-87 -78 -9 -218 104 -189 87 22 108 151 33 196 -47 29 -100 26 -137 -7z" fill="#a37e2c"/>
<path d="M997 2043 c-3 -10 -8 -34 -11 -54 -4 -20 -24 -60 -46 -89 -39 -52 -66 -118 -72 -174 -5 -51 17 -38 30 16 7 29 26 71 42 93 53 70 80 131 80 180 0 45 -14 61 -23 28z" fill="#a37e2c"/>
<path d="M2167 2053 c-3 -4 -1 -32 4 -61 8 -54 27 -91 78 -156 17 -21 35 -61 42 -92 12 -51 21 -65 33 -45 7 11 -20 114 -39 149 -8 15 -29 45 -45 68 -20 26 -34 59 -38 89 -6 44 -23 67 -35 48z" fill="#a37e2c"/>
<path d="M2389 2043 c-36 -22 -50 -48 -51 -94 -1 -74 50 -116 127 -105 43 5 80 38 91 81 16 64 -39 135 -103 135 -21 0 -50 -8 -64 -17z" fill="#a37e2c"/>
<path d="M2432 1748 c-28 -14 -38 -51 -23 -84 8 -18 18 -24 44 -24 64 0 89 61 41 99 -30 24 -31 24 -62 9z" fill="#a37e2c"/>
<path d="M686 1734 c-35 -35 -6 -94 46 -94 14 0 32 8 41 18 35 39 10 92 -43 92 -16 0 -36 -7 -44 -16z" fill="#a37e2c"/>
<path d="M977 1602 c-9 -10 -17 -24 -17 -31 0 -13 -14 -12 -291 10 -144 12 -172 8 -182 -30 -7 -29 5 -41 64 -56 61 -17 264 -44 354 -47 l59 -3 12 -40 c15 -56 48 -61 70 -10 l15 37 52 -6 c276 -33 726 -33 975 0 39 5 43 3 53 -23 5 -15 15 -33 21 -40 16 -20 46 3 54 42 7 39 -8 35 209 55 118 10 259 40 277 58 14 14 -8 59 -32 67 -12 4 -76 2 -143 -4 -67 -5 -160 -13 -207 -16 l-85 -5 -17 31 c-22 38 -48 35 -68 -8 -8 -18 -22 -35 -30 -37 -8 -3 -82 -13 -165 -22 -204 -23 -502 -23 -723 1 l-173 18 -17 36 c-20 42 -41 49 -65 23z" fill="#a37e2c"/>
<path d="M536 1404 c-9 -23 -7 -54 5 -97 14 -52 67 -76 165 -77 58 0 77 4 105 23 33 22 34 25 34 85 0 77 -18 83 -25 8 -3 -30 -8 -57 -12 -61 -26 -27 -162 -26 -205 1 -20 12 -23 23 -23 74 0 52 -2 60 -19 60 -10 0 -22 -7 -25 -16z" fill="#a37e2c"/>
<path d="M2610 1367 c0 -29 -6 -61 -13 -71 -27 -37 -177 -44 -212 -9 -10 9 -15 34 -15 70 0 39 -4 54 -12 51 -8 -3 -14 -29 -16 -70 -3 -60 -1 -66 22 -81 66 -43 177 -41 254 5 31 19 32 21 32 89 0 62 -2 69 -20 69 -17 0 -20 -7 -20 -53z" fill="#a37e2c"/>
<path d="M1490 1292 c0 -9 -16 -39 -35 -66 -19 -27 -35 -59 -34 -70 0 -19 1 -19 10 3 5 13 23 39 39 58 19 21 30 45 30 63 0 17 -2 30 -5 30 -3 0 -5 -8 -5 -18z" fill="#a37e2c"/>
<path d="M1696 1301 c-4 -7 -5 -24 -1 -39 7 -30 66 -121 78 -122 14 0 6 24 -19 58 -15 19 -32 53 -39 75 -7 25 -15 36 -19 28z" fill="#a37e2c"/>
<path d="M1604 1239 c2 -36 11 -82 21 -103 24 -50 31 -38 10 17 -9 25 -21 69 -26 98 l-8 54 3 -66z" fill="#a37e2c"/>
<path d="M1335 1069 c-16 -5 -49 -13 -72 -19 -38 -9 -43 -14 -43 -38 0 -16 6 -37 14 -47 13 -18 15 -18 97 0 46 10 88 22 93 26 6 5 5 24 -3 49 -13 43 -25 47 -86 29z" fill="#a37e2c"/>
<path d="M1673 1028 c-63 -121 -60 -108 -29 -134 50 -43 68 -34 109 57 20 45 37 85 37 90 0 11 -54 39 -74 39 -9 0 -28 -24 -43 -52z" fill="#a37e2c"/>
<path d="M1841 979 c-18 -51 -14 -68 17 -75 15 -3 49 -12 76 -20 72 -20 83 -18 95 17 20 59 17 64 -61 82 -40 10 -83 20 -94 23 -17 5 -24 -1 -33 -27z" fill="#a37e2c"/>
<path d="M434 843 c-15 -43 -42 -118 -60 -166 l-32 -88 26 -11 c15 -5 76 -28 137 -49 60 -22 111 -41 112 -43 2 -2 -3 -19 -12 -39 l-15 -36 36 -11 c19 -7 37 -10 40 -7 6 6 144 386 144 397 0 13 -60 34 -69 24 -5 -5 -28 -64 -51 -131 l-42 -122 -96 35 c-53 19 -98 37 -101 39 -5 6 4 37 52 167 l36 97 -31 10 c-17 6 -34 11 -38 11 -5 0 -21 -35 -36 -77z" fill="#a37e2c"/>
<path d="M2598 832 c-54 -20 -98 -41 -98 -47 0 -10 136 -381 146 -396 2 -4 18 -3 35 3 32 11 33 16 13 85 -5 18 0 25 32 38 73 30 89 30 137 -5 42 -30 48 -31 81 -20 20 6 36 15 36 20 0 5 -22 25 -50 45 -27 20 -50 40 -50 43 1 4 7 18 15 32 40 70 2 179 -75 218 -61 30 -108 27 -222 -16z m194 -53 c11 -6 26 -26 34 -46 14 -31 13 -38 -3 -71 -15 -31 -29 -41 -88 -64 -38 -14 -73 -24 -77 -20 -9 9 -58 141 -58 157 0 16 94 52 138 54 18 0 42 -4 54 -10z m68 -129 c0 -5 -2 -10 -4 -10 -3 0 -8 5 -11 10 -3 6 -1 10 4 10 6 0 11 -4 11 -10z m-203 -129 c2 -13 -1 -29 -7 -36 -5 -6 -7 -15 -3 -19 4 -4 0 -4 -10 0 -9 3 -14 11 -10 16 3 6 6 24 5 40 -1 34 19 33 25 -1z m23 -103 c0 -5 -5 -8 -11 -8 -5 0 -7 5 -4 10 3 6 1 10 -5 10 -6 0 -8 5 -4 11 6 11 23 -6 24 -23z" fill="#a37e2c"/>
<path d="M1005 728 c-6 -17 -45 -199 -45 -210 0 -4 7 -8 16 -8 8 0 13 4 10 8 -3 5 1 9 9 9 8 0 15 -4 15 -9 0 -5 9 -7 20 -3 15 5 18 3 14 -9 -3 -9 -10 -16 -15 -16 -5 0 -9 -4 -9 -8 0 -11 203 -54 212 -44 3 4 8 20 10 36 3 29 2 30 -72 46 -141 31 -129 24 -118 72 5 24 12 46 16 50 4 3 67 -7 141 -24 73 -16 137 -26 141 -21 5 4 10 21 12 38 l3 29 -143 32 c-207 46 -212 47 -217 32z m120 -238 c3 -5 1 -10 -4 -10 -6 0 -11 5 -11 10 0 6 2 10 4 10 3 0 8 -4 11 -10z" fill="#a37e2c"/>
<path d="M2160 690 c-130 -27 -175 -40 -175 -50 0 -34 39 -220 46 -220 4 0 15 7 23 16 9 8 16 12 16 8 0 -3 7 -1 15 6 19 16 32 5 17 -13 -7 -8 -9 -17 -5 -20 3 -4 -10 -7 -30 -7 -20 0 -37 -2 -37 -4 0 -7 31 -161 35 -172 2 -8 53 -1 167 22 213 45 199 40 192 72 -4 15 -9 30 -13 34 -4 4 -68 -5 -144 -21 -75 -16 -139 -25 -142 -21 -3 5 -8 28 -11 52 l-6 43 98 20 99 20 -2 33 c0 18 -3 35 -5 38 -3 2 -49 -5 -103 -16 -54 -11 -102 -17 -106 -13 -4 5 -10 27 -14 50 -6 39 -5 43 17 48 13 2 68 14 123 26 139 28 135 27 135 57 0 51 -5 51 -190 12z m-90 -316 c0 -8 -4 -12 -10 -9 -5 3 -10 10 -10 16 0 5 5 9 10 9 6 0 10 -7 10 -16z" fill="#a37e2c"/>
<path d="M1490 633 c0 -5 32 -104 71 -220 l71 -213 39 0 c28 0 42 5 46 17 4 10 37 109 74 221 l67 203 -41 -3 -41 -3 -48 -148 c-34 -106 -45 -154 -39 -165 9 -16 10 -16 16 1 10 25 25 21 25 -8 0 -14 -7 -28 -15 -31 -8 -3 -17 -14 -20 -25 -8 -24 -27 -25 -23 -2 2 10 -5 19 -16 21 -12 3 -16 0 -11 -8 5 -8 3 -11 -6 -8 -8 3 -14 18 -13 39 0 19 -4 37 -9 40 -6 4 -5 14 1 24 9 17 10 17 16 -3 4 -12 4 -26 1 -32 -4 -6 5 -10 21 -10 20 0 24 3 16 13 -5 6 -31 78 -58 160 l-48 147 -38 0 c-21 0 -38 -3 -38 -7z" fill="#a37e2c"/>
<path d="M937 422 c-9 -42 -17 -85 -17 -93 0 -13 38 -24 175 -54 96 -21 176 -37 179 -34 2 2 7 18 10 36 l7 31 -70 16 c-39 9 -103 23 -142 32 l-71 16 6 44 c6 46 0 77 -14 69 -5 -3 -11 -1 -15 5 -17 27 -33 5 -48 -68z m43 32 c0 -8 -4 -12 -10 -9 -5 3 -10 10 -10 16 0 5 5 9 10 9 6 0 10 -7 10 -16z" fill="#a37e2c"/>
</g>
</svg>