<svg xmlns="http://www.w3.org/2000/svg" version="1.0" width="512.000000pt" height="512.000000pt" viewBox="0 0 512.000000 512.000000" preserveAspectRatio="xMidYMid meet">

<g transform="translate(0.000000,512.000000) scale(0.100000,-0.100000)" fill="#f0e8f0" stroke="none">
<path d="M4153 4395 c-12 -8 -37 -41 -57 -73 -24 -40 -72 -89 -161 -165 -102 -88 -168 -134 -343 -237 -119 -70 -258 -148 -308 -173 -134 -67 -178 -135 -122 -187 27 -25 58 -26 89 -2 13 10 98 58 189 107 211 113 355 198 453 269 43 31 81 56 84 56 19 0 -143 -250 -317 -490 -559 -770 -920 -1081 -1365 -1175 -67 -14 -185 -20 -185 -10 0 3 21 31 47 63 184 226 302 502 365 852 27 150 32 463 10 565 -37 170 -95 293 -183 389 -163 177 -349 169 -539 -23 -117 -118 -220 -289 -254 -421 l-14 -55 -18 45 c-67 167 -172 347 -251 432 -105 111 -204 133 -304 65 -78 -53 -161 -216 -196 -387 -22 -104 -21 -338 1 -460 94 -520 494 -1003 956 -1151 38 -13 70 -25 69 -28 -3 -23 -324 -283 -494 -400 -89 -61 -397 -236 -558 -316 -60 -30 -107 -75 -107 -101 0 -19 19 -57 34 -66 15 -11 74 -10 80 1 3 5 117 69 253 142 377 202 645 394 909 651 l61 59 74 -7 c142 -12 348 26 516 96 309 129 600 375 931 787 203 254 472 633 566 797 l42 74 0 -231 c1 -191 5 -253 22 -347 36 -193 53 -230 107 -230 35 0 79 45 72 73 -2 12 -15 69 -28 127 -22 98 -24 125 -24 395 1 257 3 303 23 405 24 127 27 191 11 239 -19 53 -91 78 -136 46z m-1971 -254 c48 -30 111 -107 146 -176 113 -226 104 -626 -23 -1012 -70 -212 -175 -394 -328 -567 l-57 -65 -73 20 c-455 125 -846 571 -932 1063 -17 101 -20 304 -5 392 20 111 70 233 115 281 23 24 50 43 61 43 37 0 93 -50 148 -133 70 -105 120 -213 181 -387 70 -198 91 -230 150 -230 70 0 93 48 118 247 11 89 22 127 50 187 97 205 261 366 373 366 16 0 51 -13 76 -29z" fill="#f0e8f0"/>
</g>
</svg>