<svg version="1.0" xmlns="http://www.w3.org/2000/svg" width="550.000000pt" height="454.000000pt" viewBox="0 0 550.000000 454.000000" preserveAspectRatio="xMidYMid meet">

<g transform="translate(0.000000,454.000000) scale(0.100000,-0.100000)" fill="#ffffff" stroke="none">
<path d="M2837 4089 c-153 -22 -285 -96 -413 -231 -137 -143 -241 -355 -290 -588 -10 -47 -19 -87 -20 -89 -2 -2 -22 12 -46 32 -213 173 -482 277 -718 277 -204 0 -338 -53 -494 -198 -406 -374 -406 -1039 1 -1433 102 -99 200 -162 408 -264 160 -78 438 -195 463 -195 7 0 28 -26 49 -57 214 -334 400 -589 647 -888 100 -122 277 -325 282 -325 2 0 -55 75 -127 168 -305 393 -746 1028 -727 1047 2 2 93 -25 202 -61 215 -70 644 -194 667 -193 8 0 -92 36 -221 80 -264 89 -641 225 -683 246 -21 10 -43 47 -96 156 -83 171 -104 230 -126 366 -26 152 -10 317 44 474 85 244 273 457 491 555 129 59 212 76 360 76 116 0 144 -4 200 -24 207 -73 374 -236 498 -485 58 -117 99 -236 110 -319 l7 -58 33 46 c60 83 360 306 371 275 13 -41 -408 -795 -684 -1224 -94 -147 -85 -142 27 15 234 330 520 793 666 1080 105 207 93 196 236 232 101 26 254 28 341 4 130 -35 263 -121 371 -239 171 -187 251 -444 224 -717 -23 -226 -112 -418 -269 -583 -85 -90 -308 -248 -496 -352 -27 -16 -81 -46 -120 -67 -69 -38 -590 -298 -599 -298 -2 0 -50 -22 -107 -48 -57 -27 -170 -77 -251 -112 -81 -35 -146 -65 -144 -67 8 -8 489 184 761 303 191 83 585 287 712 367 263 167 391 298 491 500 78 158 107 305 99 497 -8 170 -32 271 -98 401 -40 81 -138 217 -186 259 -185 165 -337 231 -533 232 -89 0 -199 -17 -264 -42 -16 -6 -31 -9 -33 -6 -3 2 13 60 35 128 54 168 66 241 59 384 -11 263 -110 494 -292 680 -84 85 -129 120 -224 174 -169 96 -398 138 -594 109z m392 -98 c127 -43 239 -110 337 -204 176 -167 276 -368 305 -611 20 -167 -10 -346 -91 -539 -26 -63 -35 -74 -72 -92 -74 -36 -209 -131 -295 -210 -46 -43 -85 -76 -87 -74 -2 2 -15 40 -30 83 -113 331 -341 596 -588 684 -107 37 -291 43 -426 12 -328 -74 -600 -327 -706 -656 -91 -284 -64 -547 86 -832 21 -40 38 -75 38 -77 0 -13 -41 1 -172 59 -404 179 -579 292 -713 459 -291 363 -296 886 -11 1219 214 251 470 323 799 227 156 -46 358 -164 476 -277 35 -34 64 -62 66 -62 1 0 5 28 8 63 19 201 149 482 295 638 92 98 186 162 293 200 82 29 88 30 239 26 142 -3 163 -6 249 -36z" fill="#ffffff"/>
<path d="M2939 1123 c-13 -16 -12 -17 4 -4 9 7 17 15 17 17 0 8 -8 3 -21 -13z" fill="#ffffff"/>
</g>
</svg>